<?xml version="1.0" encoding="UTF-8"?>
<svg width="661px" height="289px" viewBox="0 0 661 289" version="1.1" xmlns="http://www.w3.org/2000/svg" xmlns:xlink="http://www.w3.org/1999/xlink">
    <!-- Generator: Sketch 53 (72520) - https://sketchapp.com -->
    <title>ibike-logo</title>
    <desc>Created with Sketch.</desc>
    <g id="Page-1" stroke="none" stroke-width="1" fill="none" fill-rule="evenodd">
        <g id="ibike-logo" fill="#333333">
            <path d="M416.46,21.47 C408.46,37.33 399.92,52.7 391.9,68.56 C376.467481,58.020718 358.187549,52.4390593 339.5,52.56 C317.97,52.56 300.8,60.42 288.11,69.27 C278.35,54.64 268.87,39.73 259.5,24.72 C281.321984,9.90342903 306.821073,1.41988543 333.17,0.21 C367.51,-1.59 395.18,8.67 416.46,21.47 Z M363.55,27.3 C362.66,33.3 357.34,36.03 349.88,34.64 C350.45,31.08 350.15,26.64 353.42,25.78 C349.68,23.6 351.02,14.29 355.19,13.37 C350.19,13.37 345.35,11.91 340.76,12.37 C344.82,13.9 343.76,23.48 340.26,24.78 C343.74,26.97 342.41,36.53 337.98,36.93 C337.66,32.86 337.55,28.58 336.71,25.03 C336.49,33.03 330.54,35.4 322.79,35.91 C322.66,33.26 321.61,30.17 321.79,28.07 C325.67,26.34 328.2,29.33 329.38,30.85 C328.38,27.52 328.33,23.3 327.38,19.96 C327.07,23.37 324.77,24.78 321.05,24.78 C320.77,22.52 320.33,20.42 320.05,18.19 C323.55,17.74 329.21,16.26 332.71,17.69 C333.9,18.17 334.22,19.38 335.24,19.46 C334.5,17.25 334.03,14.77 333.47,12.37 C325.01,13.44 317.17,15.14 308.66,16.17 C312.08,18.04 314.45,25.52 311.19,28.83 C315.19,29.92 315.86,39.2 312.46,41.23 C316.8,40.88 321.04,39.9 325.37,39.23 C329.7,38.56 334.1,37.23 338.28,37.23 C345.86,37.13 353.37,39.47 361.28,39.76 C361.86,35.57 363.45,31.08 363.55,27.3 Z M276.67,30.88 C280.67,31.4 283.34,35.35 285.79,38.22 C285.58,39.03 285.04,39.5 285.03,40.5 C290.67,41.01 292.56,45.29 295.41,48.6 C295.53,49.4 294.73,49.27 294.65,49.87 C298.65,48.16 302.48,46.23 306.29,44.3 C302.08,43.3 302.17,33.56 304.29,30.88 C299.61,30.48 301.56,20.73 302.01,18.22 C298.77,20.05 295.16,21.5 291.88,23.29 C299.45,23.56 296.2,34.66 298.47,40.29 C295.15,35.42 288.83,33.55 288.34,25.86 C288.53,25.35 289.82,24.66 289.34,24.34 C285.52,26.66 279.73,28.46 276.67,30.88 Z M395.41,31.88 C394.84,24.42 387.13,20.15 380.47,19.73 C371.89,19.2 371.58,24.98 366.04,26.82 C367.93,28.82 366.4,32.52 366.8,35.43 C367.8,42.87 376.27,47.21 383,47.07 C388.46,46.97 391.05,43.8 393.89,39.98 C394.62,39.71 395.68,39.75 396.17,39.23 C394.27,37.67 395.67,34.4 395.45,31.88 L395.41,31.88 Z" id="Shape"></path>
            <path d="M383.55,33.88 C383.08,34.73 384.48,35.55 384.55,36.66 C383.48,38.87 382.46,41.74 380.25,42.23 C375.17,43.37 373.99,37.37 376.25,33.37 C377.049472,32.7544831 378.021631,32.4047856 379.03,32.37 C376.57,28.77 379.87,23.87 384.85,24.52 C388.07,25.71 388.05,34.06 383.55,33.88 Z" id="Path"></path>
            <path d="M455.19,35.14 C443.69,41.9533333 432.046667,48.62 420.26,55.14 C427.55,66.76 435.69,77.51 442.79,89.32 C419.23,89.88 390.3,82.55 371.9,72.11 C372.97,69.55 374.72,67.66 375.7,65.02 C381.854064,67.6827748 387.709844,70.9877545 393.17,74.88 C401.12,61.31 408.09,46.77 415.95,33.11 C428.718367,36.6836404 442.121031,37.3769994 455.19,35.14 L455.19,35.14 Z" id="Path"></path>
            <path d="M286.59,75.88 C292.65,72.07 298.15,67.7 305.32,65 C306.32,67.64 308.05,69.53 309.12,72.09 C292.801252,80.7204584 275.011908,86.2217576 256.67,88.31 C250.46,88.99 243.28,89.1 238.45,89.31 C238.53,87.65 239.82,86.31 240.72,85.01 C247.18,75.48 254.13,65.09 260.72,55.39 C249.213333,48.59 237.57,41.9233333 225.79,35.39 C236.53,36.67 249.53,37.05 259.71,34.39 C269.09,47.88 277.67,62.05 286.59,75.88 Z" id="Path"></path>
            <path d="M170.67,288.82 L165.35,288.82 C165.3,288.62 165.14,288.52 164.84,288.56 C145.51,287.74 129.84,283.97 117,275.9 C105.88,268.9 93.33,256.29 95.22,236.9 C96.66,222.24 108.22,212.54 124.09,212.9 C139.46,213.19 150.74,222.02 152.19,237.96 C142.99,236.96 135.47,239.33 133.45,245.81 C132.16,249.93 134.24,254.93 136.45,257.45 C142.53,264.27 153.39,267.23 163.54,267.33 C173.775198,267.319616 183.825378,264.600927 192.67,259.45 C208.36,250.4 219.67,236.31 222.55,215.45 C225.316734,195.343162 218.678398,175.081484 204.55,160.51 C191.85,147.81 177.86,139.28 150.88,140.26 C151.27,155.17 150.05,171.06 151.64,184.06 C153.27,197.42 160.36,205.37 170.37,209.37 C140.5,209.2 109.95,209.71 80.5,209.12 C91.43,205.57 98.07,196.83 99.74,182.28 C100.31,177.28 100.05,171.49 100.25,165.83 C100.45,160.17 101.1,154.5 99.99,150.13 C97.74,141.19 89.99,137.86 85.06,133.42 C95.69,128.19 100.98,116.34 100.25,100.51 C99.87,92.4 100.15,85.04 98.25,78.23 C95.48,68.43 90.01,61.3 80.78,58.74 L167.87,58.74 C194.08,58.74 215.53,61.91 224.87,77.98 C226.09,80.08 226.6,82.91 228.42,85.57 C230.66,88.87 234.07,90.66 237.28,93.42 C234.09,95.42 230.88,97.42 228.67,100.51 C226.31,103.87 225.48,108.11 223.61,111.14 C217.7,120.73 208.98,124.84 197.28,129.63 C232.88,137.07 257.36,155.63 264.37,191.63 C252.974942,189.953211 241.43849,189.443904 229.94,190.11 C237.07,202.11 246.39,214.17 253.94,226.57 C238.44,235.97 221.94,246.06 206.6,255.43 C205.66,256 203.88,256.97 204.32,257.43 C217.93,254.81 231.72,251.11 248.12,252.12 C231.89,273.95 206.9,287.02 170.67,288.82 Z M150.89,81.22 L150.89,120.46 C162.6,120.76 172.39,120.07 177.22,113.88 C182.22,107.5 182.47,92.8 177.47,86.54 C172.33,80.1 162.34,80.36 151.14,80.46 C150.85,80.5 150.87,80.88 150.89,81.22 Z" id="Shape"></path>
            <path d="M0.51,74.64 C26.51,74.05 53.59,74.55 80,74.39 C70.1,77.88 63.45,86.58 62.54,99.95 C61.9597732,107.195715 61.8729062,114.472499 62.28,121.73 C62.99,131.57 69.02,137.54 75.19,141.22 C71.59,144.65 63.41,147.87 62.54,154.64 C61.98,158.95 62.54,164.04 62.54,168.82 C62.54,173.6 62.27,178.63 62.54,182.99 C63.38,196.5 71.16,205.99 80.26,209.07 C54.01,209.66 26.67,209.15 1.42108547e-14,209.32 C6.39,206.88 12.15,202.53 15.19,195.88 C18.8,188.04 17.98,173.34 17.98,162.47 C17.98,150.65 12.12,145.37 4.81,141.47 C10.87,137.65 17.47,131.17 18.23,120.71 C18.7874704,112.344856 18.4522457,103.944126 17.23,95.65 C15.5,85.52 9.76,76.99 0.51,74.64 Z" id="Path"></path>
            <path d="M331.67,74.39 C320.98,77.73 314.49,87.21 313.67,101.22 C313.21,109.22 312.53,119.76 314.42,126.79 C316.42,134.25 321.42,137.67 326.32,141.73 C322.39,144.49 314.49,148.46 313.67,154.89 C313.13,159.04 313.67,163.98 313.67,168.56 C313.67,173.14 313.43,178.02 313.67,182.23 C314.43,196.06 321.92,205.84 331.13,209.07 C325.42,208.81 320.43,210.31 314.93,209.32 C311.98,208.79 307.11,205.46 304.04,204.01 C292.81,198.68 282.37,194.32 267.84,192.36 C269.06,186.25 268.66,177.43 269.11,168.06 C269.5,159.93 268.91,153.06 265.31,148.82 C262.57,145.62 259.71,144.24 256.2,141.73 C263.67,136.66 269.6,129.56 269.67,116.88 C269.726332,108.398419 269.057228,99.9275559 267.67,91.56 C285.51,88.38 299.82,82.13 313.67,74.88 C317.83,72.72 325.89,75.46 331.67,74.39 Z" id="Path"></path>
            <path d="M337.98,74.64 C342.62,74.18 347.43,74.39 352.16,74.39 C356.89,74.39 362.04,73.56 366.33,74.39 C368.67,74.83 371.42,77.08 374.18,78.39 C382.474581,82.4446169 391.115802,85.7478254 400,88.26 C396.9,99.56 397.3,115.26 397.73,129.26 C407.43,120.13 417.42,108.26 427.85,97.87 C429.44,96.28 431.24,93.87 432.41,93.57 C438.18,91.98 445.02,94.96 450.89,93.31 C448.05,87.12 442.09,80.51 439.24,74.31 L494.67,74.31 C478.26,77.9 465.49,83.31 455.17,92.79 C445.17,102.02 436.69,112.98 427.07,122.66 C438.24,128.87 454.37,124.16 460.24,116.58 C460.89,127.37 464.08,137.26 467.33,146.46 C476.71,173.08 489.33,198.2 515.17,208.99 C521.85,206.23 527.91,200.62 530.62,190.51 C532.79,182.4 532.62,167.64 531.88,157.85 C531.21,149.13 525.14,145.22 519.22,141.65 C522.86,138.04 528.66,134.84 530.87,128.99 C532.66,124.26 531.87,117.87 531.87,111.77 C531.87,93.1 527.18,78.89 514.4,74.56 C560.06,73.97 606.81,74.47 652.89,74.31 C653.83,87.96 655.35,101.04 655.67,115.31 C650.92,102.42 638.51,99.05 624.28,95.81 C610.05,92.57 592.68,93.41 575.92,93.28 L575.92,129.88 C584.41,128.8 593.73,131.67 599.97,129.12 C607.29,126.12 611.07,117.27 614.15,109.88 C614.74,129.37 614.24,149.96 614.4,169.88 C611.23,161.78 607.4,152.23 599.47,148.61 C593.59,145.95 584.58,148.51 576.18,147.61 C575.59,161.37 576.09,176.22 575.92,190.39 C598.79,190.63 620.43,191.5 634.4,183.56 C648.57,175.51 654.96,161.38 660.48,144.56 C660.39,166.33 657.48,187.46 656.68,209.37 L483.3,209.37 C467.66,209.37 450.1,211.69 444.56,201.27 C446.83,197.13 449.86,193.74 452.16,189.63 C447.09,189.63 441.95,189.54 437.22,189.88 C427.77,174.01 421.29,155.18 416.71,134.44 C413.15,136.8 410.65,140.44 407.09,144.31 C405.82,145.7 403.91,147.42 402.03,149.37 C400.39,151.08 397.88,153.21 397.47,154.69 C396.94,156.61 397.55,158.95 397.47,161.02 C397.05,172.41 397.07,186.02 400,195.45 C390.969187,197.757715 382.224827,201.068296 373.93,205.32 C371.26,206.67 368.51,208.89 366.08,209.37 C361.61,210.26 356.21,209.37 351.4,209.37 L336.97,209.37 C352.25,206.01 353.68,189.37 353.68,169.37 C353.68,163.95 354.34,157.53 353.17,153.68 C351.3,147.54 345.25,145.04 341.27,142.03 C344.7,138.85 350.65,136.2 352.66,130.64 C354.05,126.8 353.84,120.99 353.93,115.19 C354.21,96.56 353.25,77.33 337.98,74.64 Z" id="Path"></path>
            <path d="M238.23,194.39 C238.45,194.39 238.47,194.48 238.49,194.64 C262.4,193.56 290.62,201.38 309.12,211.64 C308.05,214.2 306.3,216.08 305.32,218.73 C298.32,215.98 292.61,211.86 286.84,207.84 C277.65,221.44 269.09,235.66 260,249.36 C249.858078,247.148859 239.408351,246.722478 229.12,248.1 C239.6,241.54 250.06,234.94 260.76,228.6 C253.48,216.95 245.33,206.19 238.23,194.39 Z" id="Path"></path>
            <path d="M442.54,194.39 C442.45,196.05 441.16,197.39 440.26,198.69 C433.8,208.21 426.86,218.6 420.26,228.31 C430.34,234.69 440.26,241.24 450.38,247.55 C438.54,246.89 426.16,247.43 415.7,250.55 C408.39,236.55 400.82,222.73 393.42,208.78 C387.76,212.31 382.24,215.99 375.7,218.65 C374.7,216 372.97,214.12 371.9,211.56 C389.9,201.4 414.57,195.02 438.99,194.56 C440.175947,194.594982 441.362823,194.538146 442.54,194.39 L442.54,194.39 Z" id="Path"></path>
            <path d="M334.9,258.48 L322.67,262.24 C322.19,262.38 321.67,262.54 321.2,262.7 C322.113643,265.41666 323.659386,267.877509 325.71,269.88 C329.116667,266.2 332.51,262.55 335.89,258.93 C335.54,258.28 335.54,258.28 334.9,258.48 Z" id="Path"></path>
            <path d="M336.79,253.64 C335.456667,249.22 334.1,244.803333 332.72,240.39 C332.72,240.24 332.62,240.1 332.57,239.95 C329.853413,240.852674 327.394106,242.396172 325.4,244.45 L336.34,254.63 C336.99,254.28 336.99,254.28 336.79,253.64 Z" id="Path"></path>
            <path d="M335.27,257.16 C335.27,256.83 335.15,256.71 334.84,256.64 L320.99,253.47 C320.876775,253.462987 320.763225,253.462987 320.65,253.47 C320.079259,256.267314 320.182089,259.160268 320.95,261.91 L321.19,261.85 L334.99,257.62 C335.23,257.5 335.27,257.39 335.27,257.16 Z" id="Path"></path>
            <path d="M338.67,253.62 C339.67,249.04 340.76,244.47 341.81,239.89 L341.92,239.38 C339.108547,238.811824 336.202463,238.91806 333.44,239.69 C334.91,244.48 336.38,249.24 337.85,254.03 C338.12,253.88 338.5,254.19 338.67,253.62 Z" id="Path"></path>
            <path d="M391.67,215.15 C378.85,224.15 361.19,231.09 339.77,231.09 C318.09,231.09 301.17,223.23 288.13,214.64 C278.57,228.37 268.86,244.15 259.52,258.94 C279.29,271.88 304.01,282.88 336.21,283.75 C369.48,284.68 395.72,274.58 416.46,262.23 C408.29,246.43 400.08,230.68 391.67,215.15 Z M285.32,251.6 C279.66,251.75 277.68,243.2 283.8,241.98 C291.2,240.51 291.91,251.43 285.32,251.6 Z M358.5,260.25 L357.89,262.9 C357.83,263.03 357.77,263.16 357.72,263.29 C357.41,264.07 357.16,264.87 356.8,265.62 C354.670439,270.263894 350.861907,273.929518 346.14,275.88 C343.30271,277.092267 340.218041,277.613234 337.14,277.4 C336.44,277.4 335.74,277.29 335.04,277.24 L332.4,276.63 L332.08,276.48 C331.15,276.11 330.2,275.81 329.31,275.37 C321.755991,271.686055 317.234368,263.74642 317.92,255.37 C317.92,254.84 318.01,254.37 318.05,253.79 L318.67,251.07 C318.73,250.95 318.78,250.83 318.83,250.71 C319.11,249.98 319.36,249.24 319.68,248.52 C323.127921,240.868767 330.907892,236.107949 339.29,236.52 C340.01,236.52 340.74,236.63 341.46,236.69 L344.26,237.33 L344.54,237.47 C345.608521,237.881958 346.653449,238.352676 347.67,238.88 C355.12,243.08 358.81,249.47 358.67,258.04 C358.67,258.78 358.56,259.51 358.5,260.25 Z M387.85,249.58 C386.919046,248.230208 386.721712,246.505341 387.323755,244.980166 C387.925797,243.454992 389.248085,242.329975 390.85,241.98 C393.95,241.28 395.77,242.73 396.42,243.75 C400.16,249.63 391.3,254.57 387.85,249.58 Z" id="Shape"></path>
            <path d="M340.02,254.49 C343.41,250.86 346.79,247.21 350.21,243.55 C348.07211,241.632628 345.5025,240.260339 342.72,239.55 L342.62,239.9 L339.5,253.52 C339.35,254.2 339.35,254.2 340.02,254.49 Z" id="Path"></path>
            <path d="M338.67,255.47 C337.827427,255.274077 336.985121,255.796624 336.786402,256.638542 C336.587682,257.48046 337.107431,258.324496 337.948684,258.52601 C338.789938,258.727523 339.635695,258.21058 339.84,257.37 C340.034484,256.523397 339.513531,255.677404 338.67,255.47 Z" id="Path"></path>
            <path d="M327.06,253.99 L335.11,255.84 C335.229162,255.885362 335.360838,255.885362 335.48,255.84 C335.618181,255.742583 335.700375,255.584068 335.700375,255.415 C335.700375,255.245932 335.618181,255.087417 335.48,254.99 L326.43,246.57 L324.82,245.08 C322.903821,247.222572 321.531808,249.795097 320.82,252.58 L321.36,252.7 L327.06,253.99 Z" id="Path"></path>
            <path d="M341.93,257.41 L352.87,259.88 L355.87,260.57 C356.447202,257.759816 356.344345,254.85237 355.57,252.09 L341.26,256.49 C341.29,257.26 341.29,257.26 341.93,257.41 Z" id="Path"></path>
            <path d="M341.49,258.16 C341.15,258.09 341.05,258.16 340.89,258.46 C340.73,258.76 340.89,258.86 341.05,259.01 L351.29,268.53 L351.73,268.93 C353.642956,266.785178 355.014528,264.21348 355.73,261.43 L355.17,261.3 C350.603333,260.26 346.043333,259.213333 341.49,258.16 Z" id="Path"></path>
            <path d="M340.67,255.09 L341.05,255.71 L355.37,251.31 C354.450174,248.596275 352.905286,246.136786 350.86,244.13 L340.67,255.09 Z" id="Path"></path>
            <path d="M339.57,259.78 C341.03,264.52 342.493333,269.283333 343.96,274.07 C346.677155,273.1574 349.138235,271.611513 351.14,269.56 L340.14,259.35 L339.57,259.78 Z" id="Path"></path>
            <path d="M338.17,260.02 L338.04,260.02 C336.926667,264.866667 335.813333,269.716667 334.7,274.57 C337.491892,275.165016 340.387467,275.061971 343.13,274.27 L338.75,259.99 L338.17,260.02 Z" id="Path"></path>
            <path d="M336.78,259.62 C336.57,259.46 336.46,259.62 336.32,259.73 L330.87,265.59 L326.36,270.44 C327.72,271.96 332.14,274.29 333.83,274.37 C333.862616,274.288689 333.889352,274.205141 333.91,274.12 C334.98,269.46 336.04,264.81 337.13,260.12 C337.22,259.77 336.97,259.75 336.78,259.62 Z" id="Path"></path>
        </g>
    </g>
</svg>